<?xml version="1.0" encoding="utf-8"?>
<!-- Svg Vector Icons : http://www.onlinewebfonts.com/icon -->
<!DOCTYPE svg PUBLIC "-//W3C//DTD SVG 1.1//EN" "http://www.w3.org/Graphics/SVG/1.1/DTD/svg11.dtd">
<svg version="1.1" xmlns="http://www.w3.org/2000/svg" xmlns:xlink="http://www.w3.org/1999/xlink" x="0px" y="0px" viewBox="0 0 1000 1000" enable-background="new 0 0 1000 1000" xml:space="preserve">
<metadata> Svg Vector Icons : http://www.onlinewebfonts.com/icon </metadata>
<g><g transform="translate(0.000000,511.000000) scale(0.100000,-0.100000)"><path d="M4857,3889.5c-505.3-54.2-965-457.6-1108.1-971.5l-36.9-134.5H2554H1398.2v-184.3v-184.3h1158h1158L3738,2313c15.2-58.5,62.9-177.8,106.3-266.7c99.7-203.8,362.1-474.9,561.7-581.2c164.8-86.7,427.2-156.1,592-156.1c164.8,0,427.2,69.4,592,156.1c199.5,106.3,461.9,377.3,561.7,581.2c43.4,88.9,91.1,208.2,106.3,266.7l23.9,101.9h1158h1158v184.3v184.3H7441.9h-1158L6247,2918c-99.7,355.6-360,676.6-683.1,837.1C5329.7,3872.2,5106.4,3915.5,4857,3889.5z M5295,3488.3c266.7-78.1,503.1-318.8,585.5-594.2c52-173.5,47.7-433.7-10.8-609.4c-95.4-286.3-340.5-507.4-631.1-572.5c-190.8-43.4-290.6-43.4-479.2,0c-461.9,104.1-754.6,559.5-672.3,1043.1c60.7,362.1,286.3,631,613.7,733C4826.6,3529.5,5160.6,3527.4,5295,3488.3z"/><path d="M1105.4,450.2c-487.9-830.5-913-1554.8-941.1-1609.1c-65.1-125.8-80.2-292.8-47.7-533.4c123.6-915.1,793.7-1671.9,1711-1927.8c141-39,225.5-45.5,546.5-45.5c351.3,0,394.7,4.3,572.5,60.7c401.2,121.4,730.8,316.6,1010.5,596.3c403.3,403.4,639.7,930.3,665.7,1476.8c8.7,223.3,8.7,229.9-62.9,373c-39,78.1-466.2,813.2-949.8,1630.7l-878.3,1487.6h-368.7h-368.7L1105.4,450.2z M3313,246.4l787.2-1333.6l-1724-6.5c-947.7-2.2-1726.2,0-1732.7,4.3c-4.3,6.5,344.8,611.5,778.5,1346.7L2209.2,1593l160.5-6.5l158.3-6.5L3313,246.4z M4252-1620.7c-82.4-817.5-685.3-1489.8-1492-1654.6c-214.7-43.4-579-43.4-793.7,0c-811,167-1400.9,824-1489.8,1663.3l-15.2,145.3h1901.8h1904L4252-1620.7z"/><path d="M7225,1879.3c-286.3-455.4-1806.4-3072.8-1830.3-3148.7c-23.8-73.7-28.2-151.8-17.3-294.9c75.9-1008.4,832.7-1869.3,1832.4-2075.3c292.8-60.7,730.8-45.5,1008.4,34.7c728.6,214.6,1294.6,739.5,1550.5,1437.7c117.1,321,164.8,741.6,106.3,919.5c-15.2,41.2-440.2,778.5-947.7,1641.6l-921.6,1565.7h-366.5h-364.3L7225,1879.3z M8586.9,246.4l785-1333.6l-1724-6.5c-947.7-2.2-1728.3,0-1732.7,4.3c-4.3,4.3,344.8,609.4,778.5,1344.5l787.2,1338l160.5-6.5l158.3-6.5L8586.9,246.4z M9530.2-1536.2c0-130.1-45.5-351.3-108.4-533.4c-169.1-498.8-574.7-921.6-1058.2-1108.1c-279.7-106.3-492.3-140.9-817.5-125.8c-320.9,15.2-466.2,47.7-722.1,169.2c-622.4,288.4-1001.9,832.7-1075.6,1544l-13,123.6h1897.5h1897.5V-1536.2z"/></g></g>
</svg>