<?xml version="1.0" encoding="iso-8859-1"?>
<!-- Generator: Adobe Illustrator 19.0.0, SVG Export Plug-In . SVG Version: 6.00 Build 0)  -->
<svg version="1.1" id="Capa_1" xmlns="http://www.w3.org/2000/svg" xmlns:xlink="http://www.w3.org/1999/xlink" x="0px" y="0px"
	 viewBox="0 0 512 512" style="enable-background:new 0 0 512 512;" xml:space="preserve">
<path style="fill:#FDBF00;" d="M256,0C115.3,0,0,115.3,0,256s115.3,256,256,256s256-115.3,256-256S396.7,0,256,0z"/>
<path style="fill:#FF9F00;" d="M512,256c0,140.7-115.3,256-256,256V0C396.7,0,512,115.3,512,256z"/>
<path style="fill:#FF9100;" d="M256,31C131.8,31,31,131.8,31,256s100.8,225,225,225s225-100.8,225-225S380.2,31,256,31z"/>
<path style="fill:#FF7816;" d="M481,256c0,124.2-100.8,225-225,225V31C380.2,31,481,131.8,481,256z"/>
<path style="fill:#FDBF00;" d="M256,61C148.599,61,61,148.599,61,256s87.599,195,195,195s195-87.599,195-195S363.401,61,256,61z"/>
<path style="fill:#FF9F00;" d="M451,256c0,107.401-87.599,195-195,195V61C363.401,61,451,148.599,451,256z"/>
<g>
	<rect x="241" y="121" style="fill:#FF9100;" width="30" height="60"/>
	<rect x="241" y="331" style="fill:#FF9100;" width="30" height="60"/>
</g>
<g>
	<rect x="256" y="121" style="fill:#FF7816;" width="15" height="60"/>
	<rect x="256" y="331" style="fill:#FF7816;" width="15" height="60"/>
</g>
<path style="fill:#FF9100;" d="M320.799,244.6C327.1,235,331,223.299,331,211c0-32.999-27.001-60-60-60h-90v210h120
	c32.999,0,60-27.001,60-60C361,274.9,344.2,252.7,320.799,244.6z M211,181h60c16.5,0,30,13.5,30,30s-13.5,30-30,30h-60V181z
	 M301,331h-90v-60h90c16.5,0,30,13.5,30,30S317.5,331,301,331z"/>
<path style="fill:#FF7816;" d="M361,301c0,32.999-27.001,60-60,60h-45v-30h45c16.5,0,30-13.5,30-30s-13.5-30-30-30h-45v-30h15
	c16.5,0,30-13.5,30-30s-13.5-30-30-30h-15v-30h15c32.999,0,60,27.001,60,60c0,12.299-3.9,24-10.201,33.6
	C344.2,252.7,361,274.9,361,301z"/>
<g>
</g>
<g>
</g>
<g>
</g>
<g>
</g>
<g>
</g>
<g>
</g>
<g>
</g>
<g>
</g>
<g>
</g>
<g>
</g>
<g>
</g>
<g>
</g>
<g>
</g>
<g>
</g>
<g>
</g>
</svg>
