<?xml version="1.0" encoding="utf-8"?>
<!-- Svg Vector Icons : http://www.onlinewebfonts.com/icon -->
<!DOCTYPE svg PUBLIC "-//W3C//DTD SVG 1.1//EN" "http://www.w3.org/Graphics/SVG/1.1/DTD/svg11.dtd">
<svg version="1.1" xmlns="http://www.w3.org/2000/svg" xmlns:xlink="http://www.w3.org/1999/xlink" x="0px" y="0px" viewBox="0 0 1000 1000" enable-background="new 0 0 1000 1000" xml:space="preserve">
<metadata> Svg Vector Icons : http://www.onlinewebfonts.com/icon </metadata>
<g><g transform="translate(0.000000,511.000000) scale(0.100000,-0.100000)"><path d="M8591.8,4963.6c-720.2-65-1768-476.3-2869.3-1129.1c-348.5-206.8-1017.6-648.2-1263.9-834.1c-176.6-134.8-218.4-199.8-383.3-599.4c-51.1-120.8-118.5-283.5-153.3-357.8l-60.4-137.1l-46.5,74.3c-51.1,86-204.4,162.6-322.9,165c-44.1,0-118.5-23.2-162.6-48.8c-116.2-72-1080.3-1043.2-1263.9-1275.5C1559,182.2,1257-403.3,1154.8-937.6c-90.6-485.6,30.2-1175.6,225.4-1282.5c113.8-62.7,276.5,32.5,276.5,162.6c0,34.9-25.6,127.8-55.8,209.1c-253.2,676.1-27.9,1428.8,708.6,2344.2c195.2,244,934,1013,1092,1140.8l83.6,65l48.8-281.1c37.2-213.7,62.7-295.1,102.2-336.9c67.4-72,202.1-74.3,267.2,0c44.1,46.5,601.7,1289.4,648.2,1442.8c23.2,76.7,165,185.9,752.8,580.8c894.5,597.1,1828.5,1087.3,2509.2,1310.4c408.9,134.8,615.7,174.3,917.7,176.6c253.3,2.3,290.4-2.3,406.6-58.1c162.6-76.7,246.3-160.3,322.9-322.9c55.8-116.2,60.4-153.3,60.4-406.6c-2.3-185.9-16.3-341.5-44.2-464.7c-197.5-855-776-2007.4-1631-3243.4c-148.7-213.7-241.6-325.3-283.4-341.5c-34.9-14-443.8-113.9-910.8-225.4c-467-109.2-871.3-209.1-896.8-223.1c-55.8-27.9-102.2-113.8-102.2-183.5c0-104.6,95.3-160.3,543.7-313.7c241.6-83.7,453-160.3,469.3-169.6c25.6-14-41.8-99.9-250.9-325.3c-671.4-722.6-1326.6-1250-1879.6-1512.5c-309-148.7-534.4-211.4-813.2-227.7c-297.4-18.6-518.1,30.2-824.8,181.2c-127.8,62.7-255.6,113.8-281.1,113.8c-27.9,0-264.9-116.2-529.7-255.6c-264.9-141.7-525.1-278.8-576.2-304.3c-69.7-34.9,915.4,964.2,3394.4,3445.5l3489.6,3492v95.3c0,118.5-72,195.2-188.2,195.2c-74.4,0-313.7-234.7-4093.7-4014.7C402-4185.6,100-4494.6,100-4564.3c0-99.9,88.3-190.5,185.9-190.5c48.8,0,427.5,188.2,1201.2,601.7l1126.8,601.7l146.4-67.4c362.4-169.6,822.5-227.7,1226.7-151c903.8,169.6,1930.7,899.1,3006.4,2135.1c130.1,146.4,158,234.6,123.1,367.1c-39.5,146.4-118.5,218.4-325.3,290.4c-102.2,34.9-185.9,69.7-185.9,79c0,7,216.1,65.1,483.3,127.8c787.6,183.5,759.7,164.9,1157,755.1c968.8,1442.8,1512.5,2641.6,1637.9,3612.8c67.4,529.7-74.3,973.5-381,1182.6c-148.7,102.2-267.2,144.1-492.5,174.3C8835.7,4979.9,8779.9,4979.9,8591.8,4963.6z"/></g></g>
</svg>