<?xml version="1.0" encoding="iso-8859-1"?>
<!-- Generator: Adobe Illustrator 19.0.0, SVG Export Plug-In . SVG Version: 6.00 Build 0)  -->
<svg version="1.1" id="Layer_1" xmlns="http://www.w3.org/2000/svg" xmlns:xlink="http://www.w3.org/1999/xlink" x="0px" y="0px"
	 viewBox="0 0 512.002 512.002" style="enable-background:new 0 0 512.002 512.002;" xml:space="preserve">
<g>
	<g>
		<path d="M255.92,0c-5.71,0-10.339,4.629-10.339,10.339v52.606c-0.001,5.711,4.629,10.34,10.339,10.34
			c5.71,0,10.339-4.629,10.339-10.339V10.339C266.258,4.629,261.63,0,255.92,0z"/>
	</g>
</g>
<g>
	<g>
		<path d="M227.274,55.634l-37.199-37.198c-4.038-4.037-10.584-4.038-14.622,0.001c-4.038,4.037-4.038,10.584,0,14.622
			l37.199,37.198c4.037,4.036,10.584,4.038,14.622-0.001C231.312,66.219,231.312,59.672,227.274,55.634z"/>
	</g>
</g>
<g>
	<g>
		<path d="M336.64,18.437c-4.037-4.038-10.583-4.038-14.622-0.001l-37.199,37.198c-4.038,4.038-4.038,10.585,0,14.622
			c4.037,4.038,10.584,4.039,14.622,0.001l37.199-37.198C340.678,29.021,340.678,22.474,336.64,18.437z"/>
	</g>
</g>
<g>
	<g>
		<path d="M255.92,199.55c-5.71,0-10.339,4.629-10.339,10.339v52.607c0,5.71,4.629,10.339,10.339,10.339
			c5.71,0,10.339-4.629,10.339-10.339v-52.607C266.258,204.179,261.63,199.55,255.92,199.55z"/>
	</g>
</g>
<g>
	<g>
		<path d="M227.274,202.579c-4.037-4.037-10.583-4.038-14.622-0.001l-37.199,37.198c-4.038,4.038-4.038,10.585,0,14.622
			c4.037,4.038,10.583,4.039,14.622,0.001l37.199-37.198C231.312,213.163,231.312,206.616,227.274,202.579z"/>
	</g>
</g>
<g>
	<g>
		<path d="M336.64,239.776l-37.199-37.198c-4.038-4.037-10.584-4.038-14.622,0.001c-4.038,4.037-4.038,10.584,0,14.622
			l37.199,37.198c4.037,4.036,10.584,4.038,14.622-0.001C340.678,250.361,340.678,243.814,336.64,239.776z"/>
	</g>
</g>
<g>
	<g>
		<circle cx="400.387" cy="98.371" r="45.677"/>
	</g>
</g>
<g>
	<g>
		<path d="M493.001,226.766L451.479,163.5c-3.233-4.927-8.73-7.895-14.623-7.895c-10.495,0-62.472,0-70.504,0l-60.215-7.039
			l-21.674-51.774c-3.731-8.913-13.979-13.114-22.889-9.38c-2.149,0.9-4.016,2.185-5.572,3.732
			c-1.556-1.547-3.422-2.833-5.572-3.732c-8.912-3.732-19.159,0.468-22.889,9.38l-21.674,51.774l-60.215,7.039
			c-7.748,0-61.6,0-70.504,0c-5.893,0-11.39,2.968-14.623,7.894l-41.522,63.267c-2.404,3.662-3.346,8.094-2.64,12.416l12.253,75.062
			c1.557,9.538,10.548,16.002,20.081,14.446c9.534-1.556,16.002-10.547,14.445-20.081l-11.156-68.341l13.733-20.925
			c0,45.355-0.381,123.2-0.381,168.543L45.15,486.81c-2.318,11.358,5.011,22.446,16.37,24.763
			c11.379,2.318,22.448-5.028,24.762-16.37l20.609-101.001c0.282-1.381,0.424-2.787,0.424-4.197v-66.773h9.062v167.773
			c0,11.592,9.398,20.99,20.99,20.99s20.99-9.398,20.99-20.99c0-18.602,0.008-301.666,0.008-301.666l61.716-7.216
			c6.273-0.734,11.664-4.793,14.104-10.619l21.815-52.11l21.815,52.11c2.439,5.827,7.831,9.885,14.104,10.619l61.716,7.216
			c0,0,0.008,283.064,0.008,301.666c0,11.592,9.398,20.99,20.99,20.99s20.99-9.398,20.99-20.99V323.232h9.062v66.773
			c0,1.41,0.142,2.815,0.424,4.197l20.61,101.001c2.317,11.353,13.397,18.687,24.762,16.37c11.358-2.318,18.688-13.405,16.37-24.763
			l-20.185-98.923c0-28.158-0.38-95.435-0.38-168.544l13.733,20.925l-11.156,68.342c-1.556,9.534,4.911,18.524,14.445,20.081
			c9.535,1.555,18.525-4.912,20.081-14.446l12.253-75.062C496.347,234.86,495.405,230.428,493.001,226.766z"/>
	</g>
</g>
<g>
	<g>
		<circle cx="111.604" cy="98.371" r="45.677"/>
	</g>
</g>
<g>
</g>
<g>
</g>
<g>
</g>
<g>
</g>
<g>
</g>
<g>
</g>
<g>
</g>
<g>
</g>
<g>
</g>
<g>
</g>
<g>
</g>
<g>
</g>
<g>
</g>
<g>
</g>
<g>
</g>
</svg>
