<?xml version="1.0" encoding="utf-8"?>
<!-- Svg Vector Icons : http://www.onlinewebfonts.com/icon -->
<!DOCTYPE svg PUBLIC "-//W3C//DTD SVG 1.1//EN" "http://www.w3.org/Graphics/SVG/1.1/DTD/svg11.dtd">
<svg version="1.1" xmlns="http://www.w3.org/2000/svg" xmlns:xlink="http://www.w3.org/1999/xlink" x="0px" y="0px" viewBox="0 0 1000 1000" enable-background="new 0 0 1000 1000" xml:space="preserve">
<metadata> Svg Vector Icons : http://www.onlinewebfonts.com/icon </metadata>
<g><g transform="translate(0.000000,511.000000) scale(0.100000,-0.100000)"><path d="M3731,4977.3c-589.8-118.5-1066.2-584.8-1222.5-1197.3c-55.4-221.8-37.8-632.7,37.8-844.4c30.3-83.2,63-158.8,75.6-171.4c15.1-15.1,294.9,100.8,347.8,143.7c2.5,2.5-17.6,75.6-42.9,163.8c-65.5,206.7-65.5,501.6-2.5,705.8c184,594.9,824.2,952.8,1421.6,796.5c670.5-173.9,1053.6-852,849.5-1502.3c-25.2-88.2-45.4-161.3-42.9-163.8c52.9-42.8,332.7-158.8,347.8-143.7c58,58,128.6,340.3,141.2,564.6C5699.6,4384.9,4772,5184,3731,4977.3z"/><path d="M4036,4160.6c0-35.3-25.2-50.4-98.3-63c-136.1-20.2-229.4-133.6-229.4-277.3c0-138.6,63-221.8,214.3-282.3l113.4-47.9V3359c0-73.1-10.1-133.6-22.7-133.6c-37.8,0-103.3,75.6-103.3,116c0,25.2-32.8,35.3-113.4,35.3c-100.8,0-113.4-5-113.4-55.5c0-133.6,113.4-247,284.8-282.3c52.9-12.6,68.1-30.3,68.1-78.1c0-45.4,12.6-63,50.4-63c37.8,0,50.4,17.6,50.4,63c0,50.4,17.7,65.5,95.8,85.7c143.7,40.3,244.5,158.8,244.5,289.9c0,141.2-65.5,236.9-216.8,302.5c-121,52.9-123.5,52.9-123.5,173.9c0,128.6,35.3,153.8,80.7,55.5c22.7-52.9,45.4-63,141.1-63H4472l-17.6,83.2c-17.7,100.8-143.7,219.3-231.9,219.3c-42.8,0-70.6,17.6-78.1,50.4C4126.7,4223.6,4036,4226.1,4036,4160.6z M4036,3830.4c0-75.6-7.6-95.8-37.8-85.7c-50.4,20.2-73.1,105.9-37.8,148.7C4013.3,3956.4,4036,3936.3,4036,3830.4z M4227.5,3361.6c15.1-60.5-22.7-136.1-68.1-136.1c-12.6,0-22.7,50.4-22.7,113.4c0,88.2,7.6,108.4,37.8,98.3C4194.8,3427.1,4220,3394.4,4227.5,3361.6z"/><path d="M7229.6,3588.4c-443.6-121-819.2-337.8-1164.5-668c-184-176.4-388.2-433.5-420.9-526.8c-5-15.1-73.1-10.1-196.6,15.1c-158.8,32.8-345.3,37.8-1159.5,27.7c-1041-10.1-1126.7-20.2-1588-173.9c-811.6-267.2-1507.3-887.2-1829.9-1630.8C673.5,178.1,585.3-373.9,633.2-840.2c85.7-826.8,405.8-1472,1036-2087.1c234.4-226.9,234.4-231.9,100.8-902.4c-58-294.9-100.8-541.9-95.8-546.9c22.7-22.7,1998.8-408.3,2014-393.2c12.6,15.1,85.7,335.2,161.3,705.8c17.6,93.3,105.9,108.4,458.7,78.1c231.9-17.6,420.9-17.6,683.1,2.5c322.7,27.7,368,25.2,393.2-7.6c15.1-22.7,60.5-209.2,100.8-418.4c37.8-209.2,73.1-380.6,73.1-380.6c32.8,0,2016.5,405.8,2026.6,413.4c5,7.6-35.3,231.9-93.3,501.6c-58,267.2-103.3,524.3-103.3,569.6c0,68.1,40.3,123.5,259.6,352.9c146.2,153.8,294.9,337.8,345.3,428.5c100.8,181.5,209.2,317.6,287.4,363c35.3,20.2,231.9,35.3,569.6,42.9l516.7,12.6l7.6,1141.8l5,1139.3h-383.1c-539.4,0-534.4-5-839.3,554.5c-226.9,415.9-509.2,720.9-854.5,920c-108.4,63-126,68.1-151.2,32.8c-15.1-22.7-42.8-63-60.5-88.2c-27.7-37.8-30.3-7.6-17.6,191.6c15.1,279.8,105.9,698.2,242,1129.2c85.7,264.7,173.9,630.1,173.9,715.8C7489.2,3661.5,7489.2,3661.5,7229.6,3588.4z M6924.6,3006.2c-191.6-610-244.5-909.9-259.6-1446.8c-7.6-269.7-2.5-529.3,15.1-668c50.4-368,30.2-340.3,247-332.7l189,7.6l58,226.9c60.5,236.9,108.4,365.5,138.6,365.5c32.8,0,267.2-262.1,370.5-415.9c55.4-83.2,166.3-269.7,244.5-415.9C8096.6,19.3,8159.7-56.3,8333.6-142c100.8-47.9,186.5-65.5,385.6-78.1l257.1-15.1v-741.1v-738.5h-320.1c-277.3,0-342.8-10.1-463.8-58c-249.6-103.3-327.7-181.5-529.3-531.9c-47.9-80.7-204.2-274.7-350.4-428.5c-363-385.6-373-423.5-262.1-993.1c37.8-184,63-337.8,58-342.8c-22.7-17.6-1212.4-244.5-1225-234.4c-5,7.6-32.8,110.9-58,229.4c-60.5,272.2-103.4,350.4-231.9,436.1c-90.7,60.5-126,68-282.3,65.5c-98.3-2.5-473.9-5-834.3-7.6c-607.5-2.5-662.9-5-763.7-55.4c-148.7-70.6-226.9-196.6-274.8-451.2c-22.7-116-45.4-216.8-47.9-221.8c-5-5-287.3,45.4-627.6,113.4c-501.6,98.3-617.5,131.1-617.5,163.8c0,22.7,30.3,186.5,65.5,365.5c113.4,554.5,78.1,673-332.7,1099c-516.7,534.3-766.3,1043.5-844.4,1721.6C981-396.6,1061.7,92.4,1260.8,518.4c370.5,788.9,1086.4,1310.7,2039.2,1487.1c156.3,30.2,438.6,45.4,988.1,52.9c882.2,15.1,1134.3-12.6,1391.4-143.7c78.1-42.9,148.7-75.6,156.3-75.6c5,0,40.4,78.1,78.2,173.9c138.6,363,443.6,703.2,857,955.3C6919.5,3059.1,6942.2,3064.1,6924.6,3006.2z"/><path d="M6808.6,132.7c-166.3-60.5-383.1-287.3-441.1-458.7c-58-173.9-42.8-451.2,30.3-594.8c189-363,632.7-526.8,993.1-360.4c196.6,90.7,287.3,179,378.1,362.9c65.6,133.6,80.7,191.6,80.7,335.2c0,289.9-161.3,554.5-423.5,690.6C7290,178.1,6967.4,190.7,6808.6,132.7z M7280-278.1c115.9-70.6,166.3-161.3,168.9-302.5c2.5-133.6-45.4-219.3-171.4-312.6c-88.2-65.5-282.3-68.1-380.6-5c-216.8,141.2-219.3,491.5-5,620.1C6997.7-212.6,7174.1-212.6,7280-278.1z"/></g></g>
</svg>